<?xml version="1.0" encoding="utf-8"?>
<?xml-stylesheet type="text/xsl" href="rss1.xsl"?>
<rss version="2.0" xmlns:atom="http://www.w3.org/2005/Atom" xmlns:content="http://purl.org/rss/1.0/modules/content/" xmlns:dc="http://purl.org/dc/elements/1.1/" xmlns:media="http://search.yahoo.com/mrss/">
<channel>
 <title>Getty</title>
 <link>http://www.gettyimg.com/</link>
 <atom:link href="http://www.gettyimg.com/" rel="self" type="application/rss+xml" />

 
                <item>
                <title><![CDATA[【Singles (lossless)】FLAC - Victoria Justice - hate the world without u (maddy's song) [Amazon Music 16bit / 48.0kHz]]]></title>
                <link><![CDATA[https://sharemania.us/threads/victoria-justice-hate-the-world-without-u-maddys-song-amazon-music-16bit-48-0khz.245051/]]></link>
                <description><![CDATA[<article>
<blockquote class="messageText SelectQuoteContainer ugc baseHtml">
<div style="text-align: center"><img src="https://a1.mzstatic.com/r40/Music221/v4/f1/77/d5/f177d5f2-1d3e-f407-4ea3-02c22a85938c/artwork.jpg" class="bbCodeImage LbImage" alt="[​IMG]" data-url="https://a1.mzstatic.com/r40/Music221/v4/f1/77/d5/f177d5f2-1d3e-f407-4ea3-02c22a85938c/artwork.jpg" style=""> <br>
<b><i>hate the world without u (maddy's song) - Single<br>
Victoria Justice<br>
Pop<br>
2024</i></b><br>
<br>
<div class="bbCodeBlock bbCodeVfcHH HiddenContent">
<div class="attribution type">Hidden Content:</div>
<blockquote>You must reply before you can see the hidden data contained here.</blockquote>
</div></div>
<div class="messageTextEndMarker">&nbsp;</div>
</blockquote>
</article>]]></description>
                <author><![CDATA[Pools]]></author>
                </item>

                
                <item>
                <title><![CDATA[【UPSCALED】Girlicious - Maniac (2010) - 1080p AI Enhanced]]></title>
                <link><![CDATA[https://sharemania.us/threads/girlicious-maniac-2010-1080p-ai-enhanced.245052/]]></link>
                <description><![CDATA[<article>
<blockquote class="messageText SelectQuoteContainer ugc baseHtml">
<img src="https://i.imgur.com/jr15Lbd.jpeg" class="bbCodeImage LbImage" alt="[​IMG]" data-url="https://i.imgur.com/jr15Lbd.jpeg" style=""> <br>
<img src="https://i.imgur.com/mDQv0t4.jpeg" class="bbCodeImage LbImage" alt="[​IMG]" data-url="https://i.imgur.com/mDQv0t4.jpeg" style=""> <br>
<img src="https://i.imgur.com/Eue3KNc.jpeg" class="bbCodeImage LbImage" alt="[​IMG]" data-url="https://i.imgur.com/Eue3KNc.jpeg" style=""> <br>
<img src="https://i.imgur.com/oSGg7YR.jpeg" class="bbCodeImage LbImage" alt="[​IMG]" data-url="https://i.imgur.com/oSGg7YR.jpeg" style=""> <br>
<img src="https://i.imgur.com/Rpzd0kP.jpeg" class="bbCodeImage LbImage" alt="[​IMG]" data-url="https://i.imgur.com/Rpzd0kP.jpeg" style=""> <br>
<br>
<div class="bbCodeBlock bbCodeVfcHH HiddenContent">
<div class="attribution type">Hidden Content:</div>
<blockquote>You must reply before you can see the hidden data contained here.</blockquote>
</div>
<div class="ToggleTriggerAnchor bbCodeSpoilerContainer">
<button type="button" class="button bbCodeSpoilerButton ToggleTrigger Tooltip JsOnly" data-target="> .SpoilerTarget"><span>Spoiler: <span class="SpoilerTitle">MediaInfo</span></span></button>
<div class="SpoilerTarget bbCodeSpoilerText"><span style="font-family: 'Courier New'">General<br>
Format : MPEG-4<br>
Format profile : Base Media / Version 2<br>
Codec ID : mp42 (isom/mp42)<br>
File size : 560 MiB<br>
Duration : 3 min 15 s<br>
Overall bit rate mode : Variable<br>
Overall bit rate : 24.0 Mb/s<br>
<br>
Video<br>
ID : 2<br>
Format : AVC<br>
Format/Info : Advanced Video Codec<br>
Format profile : High@L5.1<br>
Format settings : CABAC / 3 Ref Frames<br>
Format settings, CABAC : Yes<br>
Format settings, Reference fra : 3 frames<br>
Codec ID : avc1<br>
Codec ID/Info : Advanced Video Coding<br>
Duration : 3 min 15 s<br>
Bit rate mode : Variable<br>
Bit rate : 23.8 Mb/s<br>
Maximum bit rate : 30.0 Mb/s<br>
Width : 1 920 pixels<br>
Height : 1 080 pixels<br>
Display aspect ratio : 16:9<br>
Frame rate mode : Constant<br>
Frame rate : 23.976 (24000/1001) FPS<br>
Standard : NTSC<br>
Color space : YUV<br>
Chroma subsampling : 4:2:0<br>
Bit depth : 8 bits<br>
Scan type : Progressive<br>
Bits/(Pixel*Frame) : 0.480<br>
Stream size : 555 MiB (99%)<br>
Language : English<br>
Encoded date : UTC 2024-05-24 03:24:02<br>
Tagged date : UTC 2024-05-24 03:24:02<br>
Color range : Limited<br>
Color primaries : BT.709<br>
Transfer characteristics : BT.709<br>
Matrix coefficients : BT.709<br>
Codec configuration box : avcC<br>
<br>
Audio<br>
ID : 1<br>
Format : AAC LC<br>
Format/Info : Advanced Audio Codec Low Complexity<br>
Codec ID : mp4a-40-2<br>
Duration : 3 min 15 s<br>
Bit rate mode : Variable<br>
Bit rate : 192 kb/s<br>
Maximum bit rate : 487 kb/s<br>
Channel(s) : 2 channels<br>
Channel layout : L R<br>
Sampling rate : 48.0 kHz<br>
Frame rate : 46.875 FPS (1024 SPF)<br>
Compression mode : Lossy<br>
Stream size : 4.41 MiB (1%)<br>
Language : English</span></div>
</div><br>
SOURCE: WebMaster 1080p
<div class="messageTextEndMarker">&nbsp;</div>
</blockquote>
</article>]]></description>
                <author><![CDATA[lulis]]></author>
                </item>

                
                <item>
                <title><![CDATA[【Singles (lossless)】FLAC - PinkPanthererss - Turn it up (2024) TIDAL MAX 24bit/48kHz [Explicit]]]></title>
                <link><![CDATA[https://sharemania.us/threads/pinkpanthererss-turn-it-up-2024-tidal-max-24bit-48khz-explicit.245054/]]></link>
                <description><![CDATA[<article>
<blockquote class="messageText SelectQuoteContainer ugc baseHtml">
<img src="https://a5.mzstatic.com/us/r1000/0/Music221/v4/71/b7/b9/71b7b938-ec89-fcf8-25b6-7a79989cc600/5021732371256.jpg" class="bbCodeImage LbImage" alt="[​IMG]" data-url="https://a5.mzstatic.com/us/r1000/0/Music221/v4/71/b7/b9/71b7b938-ec89-fcf8-25b6-7a79989cc600/5021732371256.jpg" style=""><br>
<div style="text-align: center"><b>FLAC 24Bit-48.0kHz<br>
<br>
PinkPanthererss <br>
Turn it up - Single <br>
Released by © Warner Music UK on May 24, 2024<br>
Pop • 1 Track • 02min<br>
(Non-Explicit)<br>
<br>
DOWNLOAD</b><br>
<div class="bbCodeBlock bbCodeVfcHH HiddenContent">
<div class="attribution type">Hidden Content:</div>
<blockquote>You must reply before you can see the hidden data contained here.</blockquote>
</div></div>
<div class="messageTextEndMarker">&nbsp;</div>
</blockquote>
</article>]]></description>
                <author><![CDATA[onika]]></author>
                </item>

                
                <item>
                <title><![CDATA[【Singles (lossless)】FLAC - FLO - Caught Up (2024) TIDAL MAX 24bit/44.1kHz [Explicit]]]></title>
                <link><![CDATA[https://sharemania.us/threads/flo-caught-up-2024-tidal-max-24bit-44-1khz-explicit.245053/]]></link>
                <description><![CDATA[<article>
<blockquote class="messageText SelectQuoteContainer ugc baseHtml">
<img src="https://a5.mzstatic.com/us/r1000/0/Music221/v4/0b/52/55/0b525574-1570-df8d-1f16-2b113aae9719/24UMGIM52571.rgb.jpg" class="bbCodeImage LbImage" alt="[​IMG]" data-url="https://a5.mzstatic.com/us/r1000/0/Music221/v4/0b/52/55/0b525574-1570-df8d-1f16-2b113aae9719/24UMGIM52571.rgb.jpg" style=""><br>
<div style="text-align: center"><b>FLAC 24Bit-44.1kHz<br>
<br>
FLO<br>
Caught Up - Single <br>
Released by © Universal Music Limited on May 24, 2024<br>
R&amp;B/Soul• 1 Track • 03min<br>
(Explicit)<br>
<br>
DOWNLOAD<br>
</b>
<div class="bbCodeBlock bbCodeVfcHH HiddenContent">
<div class="attribution type">Hidden Content:</div>
<blockquote>You must reply before you can see the hidden data contained here.</blockquote>
</div></div>
<div class="messageTextEndMarker">&nbsp;</div>
</blockquote>
</article>]]></description>
                <author><![CDATA[onika]]></author>
                </item>

                </channel></rss>